HIERARCHY
ROOT joint_0
{
	OFFSET 0.000000 0.000000 0.000000
	CHANNELS 6 Xposition Yposition Zposition Zrotation Yrotation Xrotation 
	JOINT joint_1
	{
		OFFSET 11.612000 -0.419000 106.198000
		CHANNELS 3 Zrotation Yrotation Xrotation
		JOINT joint_2
		{
			OFFSET -1.708000 -1.022000 97.564090
			CHANNELS 3 Zrotation Yrotation Xrotation
			JOINT joint_3
			{
				OFFSET -4.121000 -1.538000 97.375000
				CHANNELS 3 Zrotation Yrotation Xrotation
				JOINT joint_4
				{
					OFFSET 5.442000 -2.123000 132.795900
					CHANNELS 3 Zrotation Yrotation Xrotation
					JOINT joint_5
					{
						OFFSET 21.935000 0.195000 82.975100
						CHANNELS 3 Zrotation Yrotation Xrotation
						End Site
						{
							OFFSET 0.000000 0.000000 0.000000
						}
					}
				}
				JOINT joint_6
				{
					OFFSET 4.262000 -30.048000 73.899900
					CHANNELS 3 Zrotation Yrotation Xrotation
					JOINT joint_7
					{
						OFFSET 9.731000 -136.810010 -21.963010
						CHANNELS 3 Zrotation Yrotation Xrotation
						JOINT joint_8
						{
							OFFSET 33.360000 -35.709000 -267.597900
							CHANNELS 3 Zrotation Yrotation Xrotation
							JOINT joint_9
							{
								OFFSET 36.156000 -29.759000 -240.558040
								CHANNELS 3 Zrotation Yrotation Xrotation
								End Site
								{
									OFFSET 0.000000 0.000000 0.000000
								}
							}
						}
					}
				}
				JOINT joint_10
				{
					OFFSET 2.027000 27.734000 74.914920
					CHANNELS 3 Zrotation Yrotation Xrotation
					JOINT joint_11
					{
						OFFSET -5.183000 136.784000 -23.604980
						CHANNELS 3 Zrotation Yrotation Xrotation
						JOINT joint_12
						{
							OFFSET 29.806000 37.229000 -267.809940
							CHANNELS 3 Zrotation Yrotation Xrotation
							JOINT joint_13
							{
								OFFSET 36.890000 46.524990 -237.772030
								CHANNELS 3 Zrotation Yrotation Xrotation
								End Site
								{
									OFFSET 0.000000 0.000000 0.000000
								}
							}
						}
					}
				}
			}
		}
	}
	JOINT joint_14
	{
		OFFSET -7.290000 -102.873990 -124.314940
		CHANNELS 3 Zrotation Yrotation Xrotation
		JOINT joint_15
		{
			OFFSET -15.466000 -19.909010 -438.533020
			CHANNELS 3 Zrotation Yrotation Xrotation
			JOINT joint_16
			{
				OFFSET -26.899000 -18.922000 -464.797000
				CHANNELS 3 Zrotation Yrotation Xrotation
				JOINT joint_17
				{
					OFFSET 179.329000 -12.011000 -84.174000
					CHANNELS 3 Zrotation Yrotation Xrotation
					End Site
					{
						OFFSET 0.000000 0.000000 0.000000
					}
				}
			}
		}
	}
	JOINT joint_18
	{
		OFFSET -6.225000 101.546000 -125.479980
		CHANNELS 3 Zrotation Yrotation Xrotation
		JOINT joint_19
		{
			OFFSET -13.973000 7.996000 -438.963010
			CHANNELS 3 Zrotation Yrotation Xrotation
			JOINT joint_20
			{
				OFFSET -44.294000 5.716000 -463.813970
				CHANNELS 3 Zrotation Yrotation Xrotation
				JOINT joint_21
				{
					OFFSET 178.505000 -4.689000 -85.139000
					CHANNELS 3 Zrotation Yrotation Xrotation
					End Site
					{
						OFFSET 0.000000 0.000000 0.000000
					}
				}
			}
		}
	}
}
MOTION
Frames: 7
Frame Time: 0.016667
-2989.192383 991.712830 1101.175049 1.970362 8.566429 2.001592 -1.340910 8.267309 -2.676082 -3.501425 -1.537280 0.525380 -4.194472 1.574702 -0.288391 -0.690525 -7.685508 2.865562 0.000000 0.000000 0.000000 -7.432035 -4.198943 0.514945 -5.032180 -1.719613 -8.376311 -166.173330 -69.628122 -155.019958 0.000000 0.000000 0.000000 1.509150 -38.975183 5.217298 68.883141 -11.248399 10.172718 156.621525 -18.274628 92.055683 0.000000 0.000000 0.000000 1.213020 -16.624464 -11.261849 0.512002 50.759992 10.102538 6.871445 -3.974519 2.356257 0.000000 0.000000 0.000000 5.022030 -3.766149 1.569388 5.859779 10.787311 3.067395 6.817512 -10.218240 2.673455 0.000000 0.000000 0.000000 
-2974.101562 989.816101 1102.708008 0.816741 9.190928 1.819598 -1.324140 8.503532 -2.314888 -3.471291 -1.637729 0.466196 -4.120445 1.664363 -0.247156 -0.647029 -8.579458 2.931165 0.000000 0.000000 0.000000 -7.194689 -5.314480 0.990542 -4.641125 -2.271476 -8.331978 -165.674217 -69.722272 -154.790420 0.000000 0.000000 0.000000 1.397659 -40.743762 5.344665 89.198648 -16.963248 6.037579 163.312543 43.329373 111.452996 0.000000 0.000000 0.000000 1.312719 -19.040661 -11.772479 0.688231 50.535451 10.281259 5.858923 -4.901948 1.930223 0.000000 0.000000 0.000000 5.367752 -3.119463 1.747973 6.019035 10.050995 3.051865 6.876080 -8.861178 2.721511 0.000000 0.000000 0.000000 
-2959.463379 987.087830 1105.120972 -0.396252 9.846212 1.705238 -1.305582 8.909539 -2.003369 -3.355811 -1.746793 0.386972 -3.909239 1.744085 -0.180602 -0.567360 -9.768863 2.999466 0.000000 0.000000 0.000000 -7.266793 -6.466290 1.110978 -4.179216 -2.634959 -7.927907 -165.076091 -69.447419 -154.197802 0.000000 0.000000 0.000000 0.678431 -35.293266 6.076815 66.730935 -10.278075 11.741422 174.094875 14.286935 100.646886 0.000000 0.000000 0.000000 1.361008 -21.413801 -12.058262 0.637377 48.988148 9.911751 4.252070 -5.175296 1.325889 0.000000 0.000000 0.000000 5.661933 -2.467423 1.936577 6.117157 9.155517 2.887114 6.829500 -6.963629 2.740443 0.000000 0.000000 0.000000 
-2944.831787 983.676392 1107.766968 -1.436071 10.501929 1.613198 -1.313427 9.327303 -1.682842 -3.176525 -1.834493 0.303880 -3.612474 1.794796 -0.109432 -0.475786 -10.953127 3.036283 0.000000 0.000000 0.000000 -7.389092 -7.672541 1.122519 -3.908106 -2.992966 -7.477507 -164.599567 -68.970454 -153.213276 0.000000 0.000000 0.000000 -0.218754 -22.877052 6.542287 39.376764 -5.139542 11.521159 178.867970 -48.181277 105.051549 0.000000 0.000000 0.000000 1.322070 -23.524067 -12.173601 0.305523 46.532503 9.266851 2.424456 -5.402983 0.626866 0.000000 0.000000 0.000000 5.844242 -1.953976 2.166665 6.144293 8.414870 2.697988 6.736523 -4.898244 2.742240 0.000000 0.000000 0.000000 
-2929.896973 979.751648 1110.428955 -2.182760 11.195983 1.511202 -1.342876 9.615635 -1.267918 -2.927917 -1.895878 0.247569 -3.253285 1.845509 -0.078218 -0.374863 -11.991308 2.951598 0.000000 0.000000 0.000000 -7.413449 -8.962030 1.163703 -4.051881 -3.459433 -7.209004 -164.384589 -68.338318 -151.777436 0.000000 0.000000 0.000000 -0.698588 -14.898853 6.628728 25.611888 -4.382050 11.310476 175.800204 -59.474566 122.785778 0.000000 0.000000 0.000000 1.111066 -25.291785 -12.198972 -0.371450 43.255239 8.509156 0.506850 -6.113259 -0.171955 0.000000 0.000000 0.000000 5.895046 -1.731272 2.473742 6.098335 8.024903 2.539252 6.614395 -2.862529 2.728127 0.000000 0.000000 0.000000 
-2914.814453 975.261841 1113.359009 -2.663469 11.908222 1.460760 -1.410684 9.895682 -0.822808 -2.628155 -1.961479 0.233715 -2.825564 1.886328 -0.075737 -0.227524 -12.991795 2.742796 0.000000 0.000000 0.000000 -7.427701 -10.318290 1.102540 -4.531839 -3.983893 -6.970884 -164.364170 -67.477291 -149.887558 0.000000 0.000000 0.000000 -0.891230 -11.547451 6.659390 20.384327 -3.250798 11.391385 174.903859 -59.631780 132.404495 0.000000 0.000000 0.000000 0.648732 -26.634862 -12.138936 -1.447833 38.709587 7.574813 -1.509992 -6.627715 -1.036538 0.000000 0.000000 0.000000 5.821463 -1.709540 2.822139 5.953627 7.849533 2.370840 6.409760 -0.689238 2.681107 0.000000 0.000000 0.000000 
-2899.753418 969.851135 1115.583984 -2.857737 12.421329 1.485263 -1.478544 10.234239 -0.471711 -2.311320 -2.025611 0.230657 -2.383137 1.884083 -0.064954 -0.097818 -13.770497 2.566331 0.000000 0.000000 0.000000 -7.431042 -11.871398 1.022034 -5.373626 -4.630117 -6.579923 -164.579970 -66.661668 -147.341251 0.000000 0.000000 0.000000 -0.978339 -9.880940 6.594964 17.914465 -2.300627 11.362317 174.561859 -58.845064 138.573008 0.000000 0.000000 0.000000 0.145739 -27.452304 -11.869209 -2.535103 33.794369 6.516378 -2.989617 -6.327949 -1.658005 0.000000 0.000000 0.000000 5.671123 -1.712870 3.215296 5.742103 8.034755 2.232756 6.168098 1.319663 2.610675 0.000000 0.000000 0.000000 
